# xmcd
#
# Track frame offsets:
#	150
#	18290
#	35507
#	50780
#	65915
#	81115
#	99705
#	115955
#	132410
#	147827
#	161865
#	182140
#	198230
#	215017
#
# Disc length: 3100 seconds
# Revision: 0
# Processed by: cddbd v1.5.2PL0 Copyright (c) Steve Scherf et al.
# Submitted via: dBpowerAMP V12.0
#
DISCID=d70c1a0e
DTITLE=เรนโบว์ - รวมฮิตข้ามเวลา
DYEAR=1900
DGENRE=Pop
TTITLE0=ลืมเสียเถิด
TTITLE1=ที่สุดของหัวใจ
TTITLE2=รักฉันนั้นเพื่อเธอ
TTITLE3=ยากยิ่งนัก
TTITLE4=แสนรัก
TTITLE5=พบรัก
TTITLE6=ให้
TTITLE7=สัญญาใจ
TTITLE8=เจ็บเพราะใคร
TTITLE9=รักครั้งแรก
TTITLE10=ลมหายใจของความคิดถึง
TTITLE11=รักในซีเมเจอร์
TTITLE12=อธิษฐานรัก
TTITLE13=อายฟ้าดิน
EXTD=
EXTT0=
EXTT1=
EXTT2=
EXTT3=
EXTT4=
EXTT5=
EXTT6=
EXTT7=
EXTT8=
EXTT9=
EXTT10=
EXTT11=
EXTT12=
EXTT13=
PLAYORDER=
